<svg version="1.1" xmlns="http://www.w3.org/2000/svg" xmlns:xlink="http://www.w3.org/1999/xlink" width="200" height="158.7479" viewBox="0,0,200,158.7479"><g transform="translate(-277.5,0.23811)"><g data-paper-data="{&quot;isPaintingLayer&quot;:true}" fill-rule="nonzero" stroke-linecap="butt" stroke-linejoin="miter" stroke-miterlimit="10" stroke-dasharray="" stroke-dashoffset="0" style="mix-blend-mode: normal"><path d="M278.5,157.50979v-156.7479h198v156.7479z" fill="#00ff20" stroke="#000000" stroke-width="2"/><path d="M361.5,149.33331v-40h16v40z" fill="#003006" stroke="#000000" stroke-width="2"/><path d="M362.5,56.33331v-46h16v46z" fill="#003006" stroke="#000000" stroke-width="2"/><path d="M394.5,155.33331v-47h23v47z" fill="#00d5ff" stroke="none" stroke-width="0"/><path d="M401.5,109.33331v-72h25v72z" fill="#00d5ff" stroke="none" stroke-width="0"/><path d="M390.5,38.33331v-35h27v35z" fill="#00d5ff" stroke="none" stroke-width="0"/><path d="M297.5,116.33331v-16h8v16z" fill="#727272" stroke="none" stroke-width="0"/><path d="M316.5,101.33331v-20h13v20z" fill="#727272" stroke="none" stroke-width="0"/><path d="M288.5,52.33331v-16h12v16z" fill="#727272" stroke="none" stroke-width="0"/><path d="M332.5,33.33331v-10h10v10z" fill="#727272" stroke="none" stroke-width="0"/><path d="M432.5,31.33331v-7h12v7z" fill="#727272" stroke="none" stroke-width="0"/><path d="M373.5,69.33331v-6h12v6z" fill="#727272" stroke="none" stroke-width="0"/><path d="M318.5,135.33331v-14h12v14z" fill="#727272" stroke="none" stroke-width="0"/><path d="M434.5,115.33331v-11h14v11z" fill="#727272" stroke="none" stroke-width="0"/><path d="M442.5,65.33331v-13h18v13z" fill="#727272" stroke="none" stroke-width="0"/><path d="M440.5,140.33331v-12h12v12z" fill="#727272" stroke="none" stroke-width="0"/></g></g></svg>